HIERARCHY
ROOT Hips
{
	OFFSET 0.000000 0.000000 0.000000
	CHANNELS 6 Xposition Yposition Zposition Zrotation Yrotation Xrotation 
	JOINT LHipJoint
	{
		OFFSET 0.000000 0.000000 0.000000
		CHANNELS 3 Zrotation Yrotation Xrotation
		JOINT LeftUpLeg
		{
			OFFSET 1.363060 -1.794630 0.839290
			CHANNELS 3 Zrotation Yrotation Xrotation
			JOINT LeftLeg
			{
				OFFSET 2.448110 -6.726130 0.000000
				CHANNELS 3 Zrotation Yrotation Xrotation
				JOINT LeftFoot
				{
					OFFSET 2.562200 -7.039590 0.000000
					CHANNELS 3 Zrotation Yrotation Xrotation
					JOINT LeftToeBase
					{
						OFFSET 0.157640 -0.433110 2.322550
						CHANNELS 3 Zrotation Yrotation Xrotation
						End Site
						{
							OFFSET 0.000000 0.000000 0.000000
						}
					}
				}
			}
		}
	}
	JOINT RHipJoint
	{
		OFFSET 0.000000 0.000000 0.000000
		CHANNELS 3 Zrotation Yrotation Xrotation
		JOINT RightUpLeg
		{
			OFFSET -1.305520 -1.794630 0.839290
			CHANNELS 3 Zrotation Yrotation Xrotation
			JOINT RightLeg
			{
				OFFSET -2.542530 -6.985550 0.000000
				CHANNELS 3 Zrotation Yrotation Xrotation
				JOINT RightFoot
				{
					OFFSET -2.568260 -7.056230 0.000000
					CHANNELS 3 Zrotation Yrotation Xrotation
					JOINT RightToeBase
					{
						OFFSET -0.164730 -0.452590 2.363150
						CHANNELS 3 Zrotation Yrotation Xrotation
						End Site
						{
							OFFSET 0.000000 0.000000 0.000000
						}
					}
				}
			}
		}
	}
	JOINT LowerBack
	{
		OFFSET 0.000000 0.000000 0.000000
		CHANNELS 3 Zrotation Yrotation Xrotation
		JOINT Spine
		{
			OFFSET 0.028270 2.035590 -0.193380
			CHANNELS 3 Zrotation Yrotation Xrotation
			JOINT Spine1
			{
				OFFSET 0.056720 2.048850 -0.042750
				CHANNELS 3 Zrotation Yrotation Xrotation
				JOINT Neck
				{
					OFFSET 0.000000 0.000000 0.000000
					CHANNELS 3 Zrotation Yrotation Xrotation
					JOINT Neck1
					{
						OFFSET -0.054170 1.746240 0.172020
						CHANNELS 3 Zrotation Yrotation Xrotation
						JOINT Head
						{
							OFFSET 0.104070 1.761360 -0.123970
							CHANNELS 3 Zrotation Yrotation Xrotation
							End Site
							{
								OFFSET 0.000000 0.000000 0.000000
							}
						}
					}
				}
				JOINT LeftShoulder
				{
					OFFSET 0.000000 0.000000 0.000000
					CHANNELS 3 Zrotation Yrotation Xrotation
					JOINT LeftArm
					{
						OFFSET 3.362410 1.200890 -0.311210
						CHANNELS 3 Zrotation Yrotation Xrotation
						JOINT LeftForeArm
						{
							OFFSET 4.983000 -0.000000 -0.000000
							CHANNELS 3 Zrotation Yrotation Xrotation
							JOINT LeftHand
							{
								OFFSET 3.483560 -0.000000 -0.000000
								CHANNELS 3 Zrotation Yrotation Xrotation
								JOINT LeftFingerBase
								{
									OFFSET 0.000000 0.000000 0.000000
									CHANNELS 3 Zrotation Yrotation Xrotation
									JOINT LeftHandIndex1
									{
										OFFSET 0.715260 -0.000000 -0.000000
										CHANNELS 3 Zrotation Yrotation Xrotation
										End Site
										{
											OFFSET 0.000000 0.000000 0.000000
										}
									}
								}
								JOINT LThumb
								{
									OFFSET 0.000000 0.000000 0.000000
									CHANNELS 3 Zrotation Yrotation Xrotation
									End Site
									{
										OFFSET 0.000000 0.000000 0.000000
									}
								}
							}
						}
					}
				}
				JOINT RightShoulder
				{
					OFFSET 0.000000 0.000000 0.000000
					CHANNELS 3 Zrotation Yrotation Xrotation
					JOINT RightArm
					{
						OFFSET -3.136600 1.374050 -0.404650
						CHANNELS 3 Zrotation Yrotation Xrotation
						JOINT RightForeArm
						{
							OFFSET -5.241900 -0.000000 -0.000000
							CHANNELS 3 Zrotation Yrotation Xrotation
							JOINT RightHand
							{
								OFFSET -3.444170 -0.000000 -0.000000
								CHANNELS 3 Zrotation Yrotation Xrotation
								JOINT RightFingerBase
								{
									OFFSET 0.000000 0.000000 0.000000
									CHANNELS 3 Zrotation Yrotation Xrotation
									JOINT RightHandIndex1
									{
										OFFSET -0.622530 -0.000000 -0.000000
										CHANNELS 3 Zrotation Yrotation Xrotation
										End Site
										{
											OFFSET 0.000000 0.000000 0.000000
										}
									}
								}
								JOINT RThumb
								{
									OFFSET 0.000000 0.000000 0.000000
									CHANNELS 3 Zrotation Yrotation Xrotation
									End Site
									{
										OFFSET 0.000000 0.000000 0.000000
									}
								}
							}
						}
					}
				}
			}
		}
	}
}
MOTION
Frames: 10
Frame Time: 0.008333
1.613062 17.912075 -37.060944 -9.641858 -3.903000 16.692253 3.367581 0.175595 -1.847168 -6.353100 -14.368930 -41.951887 0.864785 10.554314 26.847889 -1.870768 9.979268 2.039081 0.355900 -3.832600 -10.606100 -3.665208 -2.507011 0.125175 38.053493 12.764231 -12.002526 -0.750370 -6.988541 21.891069 0.669027 -4.703134 -2.827245 -0.089300 -1.927400 5.305100 8.846695 4.327093 -0.607074 6.078608 5.701443 -8.486330 -5.734071 3.105072 -3.041322 -9.510706 -3.941429 -23.271412 5.048852 -3.247702 19.731954 2.300200 -1.686500 11.295400 -5.308158 -9.468971 1.274758 -87.886726 11.327447 28.628988 20.391942 -21.927006 -4.940432 0.141934 0.004860 -11.551634 36.545885 -21.836456 -15.345600 -7.125000 0.000000 0.000000 4.689700 3.575600 -4.403100 4.568297 11.086387 3.554305 81.673540 2.080710 32.861165 -28.787321 28.175112 -8.419169 0.561630 -0.484854 -1.496594 -33.159659 -50.576609 26.922600 7.125000 0.000000 0.000000 35.056200 -83.515700 -31.156500
1.616769 17.920958 -36.970019 -9.811927 -4.187678 16.822920 3.334669 0.131007 -1.918647 -5.953204 -14.474167 -41.821495 0.696132 10.240823 25.879240 -1.917042 10.209973 2.460541 0.364289 -3.876794 -10.730294 -3.635691 -2.524466 0.099931 38.152253 12.473278 -11.631667 -0.692013 -6.832705 21.487938 0.554493 -4.300311 -2.565631 -0.093187 -1.968798 5.419405 9.060498 4.481391 -0.519415 6.024306 5.922884 -9.110063 -5.864863 3.188092 -3.156024 -9.497391 -3.889163 -22.375885 5.058037 -3.281590 19.649911 2.302110 -1.708802 11.111326 -5.292382 -9.392750 1.288606 -88.012706 12.109990 28.611805 20.308137 -21.843991 -4.904185 0.133058 0.005681 -11.641525 36.595717 -21.657244 -15.262395 -7.125000 0.000000 0.000000 4.758515 3.767176 -4.451113 4.557553 11.023341 3.554248 81.954701 1.478894 32.949582 -28.762684 28.137802 -8.390654 0.547510 -0.508604 -1.429064 -33.443848 -49.536758 26.788040 7.125000 0.000000 0.000000 28.113355 -82.920852 -24.641547
1.618908 17.926257 -36.882828 -9.963529 -4.412614 16.920181 3.298621 0.094964 -1.972883 -5.571789 -14.591517 -41.698177 0.535351 9.933256 24.939345 -1.953188 10.392175 2.788844 0.356442 -3.834462 -10.611543 -3.607526 -2.540666 0.084456 38.249308 12.190438 -11.228994 -0.632450 -6.669356 21.070842 0.446718 -3.921490 -2.380874 -0.109269 -2.123805 5.848183 9.251244 4.607618 -0.373856 5.955666 6.103627 -9.497298 -5.984627 3.258860 -3.268480 -9.467987 -3.899504 -22.052970 5.075284 -3.345288 19.666440 2.297831 -1.734889 11.067398 -5.279528 -9.345021 1.300026 -88.081085 12.603005 28.618940 20.223651 -21.733649 -4.819999 0.131752 -0.024588 -11.722652 35.550922 -19.289889 -13.273526 -7.125000 0.000000 0.000000 4.489704 6.805982 -3.960455 4.558707 10.996857 3.551599 82.176643 1.169488 32.951541 -28.563182 27.920389 -8.278428 0.543379 -0.526538 -1.023316 -33.545259 -48.879096 26.638882 7.125000 0.000000 0.000000 24.020069 -82.495200 -20.789922
1.619512 17.928515 -36.799190 -10.090991 -4.586295 16.979496 3.259217 0.068541 -2.008456 -5.219438 -14.717430 -41.578874 0.383033 9.632652 24.031838 -1.982112 10.536191 3.028639 0.339320 -3.742316 -10.352980 -3.579806 -2.555550 0.079505 38.336742 11.919541 -10.788049 -0.571513 -6.497624 20.637395 0.350899 -3.583066 -2.260925 -0.133247 -2.352215 6.480152 9.409435 4.705484 -0.211129 5.882285 6.238931 -9.631488 -6.085636 3.316901 -3.353032 -9.425849 -3.960820 -22.242095 5.099480 -3.427800 19.753084 2.288855 -1.761163 11.141419 -5.271724 -9.327152 1.307121 -88.102469 12.806383 28.622509 20.136365 -21.595739 -4.695593 0.135879 -0.079096 -11.759613 33.649174 -15.174461 -9.776498 -7.125000 0.000000 0.000000 3.956783 12.112290 -3.046178 4.570371 11.004654 3.545952 82.332216 1.147190 32.876924 -28.232863 27.568523 -8.104943 0.549183 -0.536608 -0.381751 -33.448647 -48.624390 26.470028 7.125000 0.000000 0.000000 22.853637 -82.253603 -19.664731
1.617833 17.932012 -36.719595 -10.107784 -4.772889 16.917693 3.211317 0.071938 -1.994268 -5.045637 -14.815449 -41.429673 0.252629 9.356789 23.224778 -2.033481 10.738050 3.169898 0.389993 -4.006322 -11.095073 -3.541924 -2.567405 0.102074 38.311824 11.715747 -10.202274 -0.506172 -6.300743 20.146552 0.338682 -3.513123 -2.108772 -0.119130 -2.223520 6.123803 9.396128 4.750314 -0.510093 5.916440 6.237644 -9.123868 -6.060619 3.346990 -3.079083 -9.401984 -3.970806 -22.594651 5.122366 -3.410472 19.618738 2.289674 -1.744318 11.153559 -5.298404 -9.377949 1.283778 -88.169781 12.502405 28.283268 20.018637 -21.406778 -4.594075 0.123710 -0.093255 -11.292053 33.119201 -13.317014 -8.442831 -7.125000 0.000000 0.000000 3.849844 14.382287 -2.780604 4.583616 11.044779 3.530176 82.285506 1.562512 32.787799 -28.205717 27.532795 -8.095418 0.571688 -0.508252 -0.564239 -32.822065 -49.324384 26.205205 7.125000 0.000000 0.000000 27.733816 -82.512971 -24.064708
1.616533 17.935761 -36.639917 -10.078103 -4.926666 16.876113 3.161678 0.075656 -1.976576 -4.915376 -14.953298 -41.310527 0.130918 9.096420 22.470808 -2.068179 10.863213 3.196957 0.338525 -3.706069 -10.254897 -3.509222 -2.578680 0.123240 38.236086 11.482299 -9.678363 -0.447090 -6.117842 19.694673 0.292852 -3.332379 -1.949010 -0.110835 -2.146367 5.910312 9.374590 4.798444 -0.858102 5.877828 6.226410 -8.608031 -6.030334 3.374378 -2.779888 -9.343361 -3.992813 -22.998244 5.134843 -3.414995 19.533882 2.279667 -1.734894 11.195099 -5.319661 -9.433809 1.263877 -88.175399 12.175754 28.067575 19.889241 -21.207840 -4.505689 0.111435 -0.092016 -11.136323 32.880383 -12.440276 -7.825998 -7.125000 0.000000 0.000000 3.807528 15.439174 -2.662481 4.606055 11.086879 3.511930 82.256303 1.979273 32.696696 -28.144677 27.479033 -8.098559 0.594440 -0.463052 -0.782204 -32.681332 -50.769566 26.601163 7.125000 0.000000 0.000000 38.426790 -83.317203 -34.279980
1.615532 17.939177 -36.560220 -10.034743 -5.055183 16.861163 3.115572 0.078433 -1.960211 -4.794894 -15.118495 -41.218905 0.018093 8.851005 21.763574 -2.096014 10.952680 3.146622 0.237904 -3.138654 -8.665073 -3.478714 -2.589567 0.142050 38.141702 11.225160 -9.207975 -0.392591 -5.945635 19.271524 0.219360 -3.060061 -1.777836 -0.108372 -2.122225 5.843647 9.351370 4.842230 -1.241051 5.829352 6.206147 -8.135038 -5.996317 3.396514 -2.472075 -9.290845 -4.009753 -23.331244 5.142908 -3.418014 19.456342 2.269844 -1.726821 11.227999 -5.338225 -9.486550 1.245640 -88.177274 11.891550 27.900840 19.763322 -21.018830 -4.432100 0.099082 -0.081903 -11.169720 32.852142 -12.216797 -7.690463 -7.125000 0.000000 0.000000 3.819994 15.687454 -2.650708 4.629551 11.123807 3.492751 82.231885 2.343158 32.648171 -28.040274 27.392810 -8.102190 0.615475 -0.407934 -0.989465 -32.934221 -52.717310 27.494906 7.125000 0.000000 0.000000 54.066461 -84.388324 -49.466577
1.614832 17.939387 -36.480766 -10.101260 -5.161310 16.930925 3.099506 0.073821 -1.967248 -4.552011 -15.289649 -41.175926 -0.074722 8.635557 21.130193 -2.150742 11.139397 3.085731 0.256454 -3.257596 -8.996802 -3.440243 -2.600435 0.151722 38.143841 10.942246 -8.817634 -0.340849 -5.782549 18.866869 0.111474 -2.671835 -1.565853 -0.118533 -2.218729 6.110721 9.352350 4.844152 -1.639445 6.026979 6.170295 -7.971557 -5.960773 3.396464 -2.216343 -9.425216 -3.943119 -22.994853 5.166943 -3.318504 19.215303 2.307218 -1.695858 11.080549 -5.362575 -9.497790 1.223439 -88.417419 11.975787 27.522691 19.709286 -20.935859 -4.397519 0.086683 -0.080377 -11.089679 32.935830 -12.011179 -7.592390 -7.125000 0.000000 0.000000 3.908860 15.910130 -2.693743 4.620741 11.119195 3.478093 82.163725 2.362042 32.880932 -27.802039 27.175213 -8.055118 0.624471 -0.360857 -0.977307 -33.644571 -54.718275 28.770057 7.125000 0.000000 0.000000 76.700205 -84.853795 -71.794439
1.616798 17.937493 -36.401125 -10.168191 -5.140587 17.050251 3.084972 0.050504 -2.001661 -4.282024 -15.539805 -41.196584 -0.151379 8.452366 20.573495 -2.212500 11.375700 3.114536 0.294707 -3.484626 -9.631587 -3.416341 -2.616619 0.140748 38.183945 10.676915 -8.483901 -0.287577 -5.623656 18.456252 0.055042 -2.460520 -1.385637 -0.127145 -2.298085 6.330274 9.503240 4.877613 -1.892492 6.005099 6.176615 -8.212364 -6.026336 3.395239 -2.102947 -9.408357 -3.854135 -22.165179 5.185885 -3.291994 18.904703 2.318277 -1.690845 10.819218 -5.357102 -9.470246 1.224147 -88.523910 12.445258 27.369341 19.670526 -20.895001 -4.388414 0.090512 -0.073466 -11.108588 32.886085 -12.491600 -7.877277 -7.125000 0.000000 0.000000 3.813657 15.348827 -2.671971 4.626144 11.074757 3.464412 82.351734 2.090378 32.805801 -27.811173 27.226939 -8.134505 0.624317 -0.284076 -1.425294 -34.204412 -57.170054 30.010502 7.125000 0.000000 0.000000 97.763527 -8.232322 11.749124
1.619378 17.934881 -36.320343 -10.251737 -5.125517 17.174332 3.073152 0.024680 -2.042258 -4.000708 -15.770931 -41.228583 -0.215666 8.291995 20.076049 -2.284525 11.660346 3.207795 0.330597 -3.695021 -10.220113 -3.397787 -2.633572 0.124752 38.245890 10.452207 -8.131792 -0.234822 -5.466262 18.047406 0.020372 -2.323787 -1.235349 -0.132268 -2.344396 6.458350 9.672056 4.924408 -1.985234 5.939085 6.219703 -8.553483 -6.114704 3.404090 -2.093904 -9.341281 -3.788135 -21.493013 5.192799 -3.294927 18.703557 2.314187 -1.693510 10.626001 -5.346459 -9.430611 1.234141 -88.582269 12.954004 27.316722 19.615977 -20.836598 -4.379357 0.099626 -0.061191 -11.210314 32.758206 -13.353893 -8.373578 -7.125000 0.000000 0.000000 3.614506 14.349533 -2.609518 4.634492 11.032596 3.454927 82.603324 1.785812 32.648664 -27.832444 27.274272 -8.188889 0.621999 -0.233653 -1.729883 -34.569618 -58.607459 30.759712 7.125000 0.000000 0.000000 108.173766 60.038381 94.263159
